<?xml version="1.0" encoding="utf-8"?>
<svg version="1.1" id="logo" xmlns="http://www.w3.org/2000/svg" xmlns:xlink="http://www.w3.org/1999/xlink" x="0px"
  y="0px" viewBox="0 0 90 90" fill="none" xml:space="preserve">

	<defs>
		<clipPath id="clip874_4014">
			<rect id="Notion Logomark" width="90.000000" height="90.000000" fill="none"/>
		</clipPath>
	</defs>
	<g clip-path="url(#clip874_4014)">
		<path id="Element" d="M11.8359 8.44922L56.1992 5.18262C61.6484 4.71484 63.0508 5.02832 66.4727 7.51562L80.6367 17.4697C82.9727 19.1816 83.75 19.6475 83.75 21.5137L83.75 76.1064C83.75 79.5283 82.5039 81.5518 78.1484 81.8613L26.6289 84.9727C23.3555 85.1289 21.8008 84.6621 20.0859 82.4834L9.65625 68.9521C7.78906 66.4619 7.01172 64.5977 7.01172 62.418L7.01172 13.8916C7.01172 11.0938 8.25781 8.75977 11.8359 8.44922Z" fill-rule="nonzero" fill="#FFFFFF"/>
		<path id="Element" d="M56.1992 5.18262C61.6484 4.71484 63.0508 5.02832 66.4727 7.51562L80.6367 17.4697C82.9727 19.1816 83.75 19.6475 83.75 21.5137L83.75 76.1064C83.75 79.5283 82.5039 81.5518 78.1484 81.8613L26.6289 84.9727C23.3555 85.1289 21.8008 84.6621 20.0859 82.4834L9.65625 68.9521C7.78906 66.4619 7.01172 64.5977 7.01172 62.418L7.01172 13.8916C7.01172 11.0938 8.25781 8.75977 11.8359 8.44922L56.1992 5.18262Z" stroke="#63DE77"/>
		<path id="Element" d="M56.1875 5.18262L11.8242 8.44922C8.24609 8.75977 7 11.0938 7 13.8916L7 62.418C7 64.5977 7.77734 66.4619 9.64453 68.9521L20.0742 82.4834C21.7891 84.6621 23.3438 85.1289 26.6172 84.9727L78.1367 81.8613C82.4922 81.5518 83.7383 79.5283 83.7383 76.1064L83.7383 21.5137C83.7383 19.7441 83.0391 19.2334 80.9766 17.7275C80.8633 17.6445 80.7461 17.5586 80.625 17.4697L66.4609 7.51562C63.0391 5.02832 61.6367 4.71484 56.1875 5.18262ZM27.7852 20.6182C23.5781 20.9014 22.6211 20.9668 20.2344 19.0254L14.1602 14.2041C13.5391 13.5811 13.8516 12.8027 15.4062 12.6484L58.0586 9.53809C61.6367 9.22656 63.5039 10.4727 64.9062 11.5605L72.2227 16.8496C72.5312 17.0039 73.3086 17.9365 72.375 17.9365L28.3281 20.5811C28.1406 20.5938 27.9609 20.6055 27.7891 20.6172L27.7852 20.6182L27.7852 20.6182ZM22.8789 75.6396L22.8789 29.291C22.8789 27.2695 23.5 26.3359 25.3672 26.1787L75.9531 23.2246C77.6719 23.0693 78.4492 24.1592 78.4492 26.1787L78.4492 72.2158C78.4492 74.2393 78.1367 75.9531 75.332 76.1064L26.9258 78.9082C24.1211 79.0615 22.8789 78.1299 22.8789 75.6396Z" fill-rule="evenodd" fill="#2388FF"/>
		<path id="Element" d="M11.8242 8.44922C8.24609 8.75977 7 11.0938 7 13.8916L7 62.418C7 64.5977 7.77734 66.4619 9.64453 68.9521L20.0742 82.4834C21.7891 84.6621 23.3438 85.1289 26.6172 84.9727L78.1367 81.8613C82.4922 81.5518 83.7383 79.5283 83.7383 76.1064L83.7383 21.5137C83.7383 19.7441 83.0391 19.2334 80.9766 17.7275C80.8633 17.6445 80.7461 17.5586 80.625 17.4697L66.4609 7.51562C63.0391 5.02832 61.6367 4.71484 56.1875 5.18262L11.8242 8.44922ZM20.2344 19.0254L14.1602 14.2041C13.5391 13.5811 13.8516 12.8027 15.4062 12.6484L58.0586 9.53809C61.6367 9.22656 63.5039 10.4727 64.9062 11.5605L72.2227 16.8496C72.5312 17.0039 73.3086 17.9365 72.375 17.9365L28.3281 20.5811C28.1406 20.5938 27.9609 20.6055 27.7891 20.6172L27.7852 20.6182L27.7852 20.6182C23.5781 20.9014 22.6211 20.9668 20.2344 19.0254ZM22.8789 29.291C22.8789 27.2695 23.5 26.3359 25.3672 26.1787L75.9531 23.2246C77.6719 23.0693 78.4492 24.1592 78.4492 26.1787L78.4492 72.2158C78.4492 74.2393 78.1367 75.9531 75.332 76.1064L26.9258 78.9082C24.1211 79.0615 22.8789 78.1299 22.8789 75.6396L22.8789 29.291Z" stroke="#2388FF"/>
		<path id="0/1" d="M39.6738 61.3105C43.0078 61.3105 45.1465 58.2637 45.1465 52.1465C45.1465 46.0469 43.0078 43.0703 39.6738 43.0703C36.3105 43.0703 34.1777 46.0234 34.1777 52.1465C34.1777 58.2637 36.3105 61.3105 39.6738 61.3105ZM39.6738 59.5586C37.6582 59.5586 36.3105 57.3262 36.3105 52.1465C36.3105 47.0078 37.6582 44.8223 39.6738 44.8223C41.666 44.8223 43.0078 47.0078 43.0078 52.1465C43.0078 57.3262 41.666 59.5586 39.6738 59.5586ZM46.5837 65.2949L48.1891 65.2949L55.3669 41.9453L53.7848 41.9453L46.5837 65.2949ZM57.8374 61L67.4878 61L67.4878 59.1777L63.9604 59.1777L63.9604 43.3867L62.2788 43.3867C61.3178 43.9609 60.1928 44.3652 58.6343 44.6582L58.6343 46.0469L61.7514 46.0469L61.7514 59.1777L57.8374 59.1777L57.8374 61Z" fill-rule="evenodd" fill="#0077FF"/>
	</g>
</svg>
